HIERARCHY
ROOT Hips
{
  OFFSET 5.80788e-005 67.184 3.4734
  CHANNELS 6 Xposition Yposition Zposition Zrotation Xrotation Yrotation
  JOINT Chest
  {
    OFFSET 0 8.7983 -4.7612
    CHANNELS 3 Zrotation Xrotation Yrotation
    JOINT Chest2
    {
      OFFSET 0 8.0291 0.4195
      CHANNELS 3 Zrotation Xrotation Yrotation
      JOINT Chest3
      {
        OFFSET 0 9.9351 -2.2114
        CHANNELS 3 Zrotation Xrotation Yrotation
        JOINT Neck
        {
          OFFSET 0 22.3885 -0.4656
          CHANNELS 3 Zrotation Xrotation Yrotation
          JOINT Head
          {
            OFFSET -0.0001 12.643 3.4389
            CHANNELS 3 Zrotation Xrotation Yrotation
            End Site
            {
              OFFSET 0.0001 17.6655 0.5274
            }
          }
        }
        JOINT LeftCollar
        {
          OFFSET 2.2603 21.606 7.4023
          CHANNELS 3 Zrotation Xrotation Yrotation
          JOINT LeftShoulder
          {
            OFFSET 13.5163 -1.1332 -5.0146
            CHANNELS 3 Zrotation Xrotation Yrotation
            JOINT LeftElbow
            {
              OFFSET -0.0995 -28.05 -0.2431
              CHANNELS 3 Zrotation Xrotation Yrotation
              JOINT LeftWrist
              {
                OFFSET 0.0679 -23.3996 -0.1402
                CHANNELS 3 Zrotation Xrotation Yrotation
                JOINT LeftFinger1
                {
                  OFFSET 0.7932 -9.069 2.5189
                  CHANNELS 3 Zrotation Xrotation Yrotation
                  JOINT LeftFinger11
                  {
                    OFFSET -0.8272 -3.3923 0.5977
                    CHANNELS 3 Zrotation Xrotation Yrotation
                    JOINT LeftFinger12
                    {
                      OFFSET -0.5649 -2.3158 0.4082
                      CHANNELS 3 Zrotation Xrotation Yrotation
                      End Site
                      {
                        OFFSET -0.4919 -1.6479 0.2673
                      }
                    }
                  }
                }
                JOINT LeftFinger2
                {
                  OFFSET 0.9159 -9.2044 0.2193
                  CHANNELS 3 Zrotation Xrotation Yrotation
                  JOINT LeftFinger21
                  {
                    OFFSET 0.0117 -4.1944 -0.0248
                    CHANNELS 3 Zrotation Xrotation Yrotation
                    JOINT LeftFinger22
                    {
                      OFFSET 0.0071 -2.3249 -0.0142
                      CHANNELS 3 Zrotation Xrotation Yrotation
                      End Site
                      {
                        OFFSET -0.1475 -2.0882 0.0028
                      }
                    }
                  }
                }
                JOINT LeftFinger3
                {
                  OFFSET 0.6113 -8.7231 -2.0637
                  CHANNELS 3 Zrotation Xrotation Yrotation
                  JOINT LeftFinger31
                  {
                    OFFSET -0.1927 -3.8059 -0.2383
                    CHANNELS 3 Zrotation Xrotation Yrotation
                    JOINT LeftFinger32
                    {
                      OFFSET -0.1091 -2.1688 -0.1362
                      CHANNELS 3 Zrotation Xrotation Yrotation
                      End Site
                      {
                        OFFSET -0.2358 -1.9176 -0.0906
                      }
                    }
                  }
                }
                JOINT LeftFinger4
                {
                  OFFSET -0.6151 -8.0947 -3.5641
                  CHANNELS 3 Zrotation Xrotation Yrotation
                  JOINT LeftFinger41
                  {
                    OFFSET -0.4882 -2.341 -0.6462
                    CHANNELS 3 Zrotation Xrotation Yrotation
                    JOINT LeftFinger42
                    {
                      OFFSET -0.3575 -1.7167 -0.4742
                      CHANNELS 3 Zrotation Xrotation Yrotation
                      End Site
                      {
                        OFFSET -0.4187 -1.5237 -0.3496
                      }
                    }
                  }
                }
                JOINT LeftFinger0
                {
                  OFFSET -1.42 -1.8761 1.4223
                  CHANNELS 3 Zrotation Xrotation Yrotation
                  JOINT LeftFinger01
                  {
                    OFFSET -1.1471 -3.4929 2.6334
                    CHANNELS 3 Zrotation Xrotation Yrotation
                    JOINT LeftFinger02
                    {
                      OFFSET -0.823 -2.3 1.6571
                      CHANNELS 3 Zrotation Xrotation Yrotation
                      End Site
                      {
                        OFFSET -0.5822 -1.6914 1.1582
                      }
                    }
                  }
                }
              }
            }
          }
        }
        JOINT RightCollar
        {
          OFFSET -2.2603 21.606 7.4023
          CHANNELS 3 Zrotation Xrotation Yrotation
          JOINT RightShoulder
          {
            OFFSET -13.5187 -1.1334 -5.0155
            CHANNELS 3 Zrotation Xrotation Yrotation
            JOINT RightElbow
            {
              OFFSET 0.0994 -28.0499 -0.2431
              CHANNELS 3 Zrotation Xrotation Yrotation
              JOINT RightWrist
              {
                OFFSET -0.0679 -23.3996 -0.1402
                CHANNELS 3 Zrotation Xrotation Yrotation
                JOINT RightFinger1
                {
                  OFFSET -0.7932 -9.0691 2.5189
                  CHANNELS 3 Zrotation Xrotation Yrotation
                  JOINT RightFinger11
                  {
                    OFFSET 0.8272 -3.3923 0.5977
                    CHANNELS 3 Zrotation Xrotation Yrotation
                    JOINT RightFinger12
                    {
                      OFFSET 0.565 -2.3158 0.4082
                      CHANNELS 3 Zrotation Xrotation Yrotation
                      End Site
                      {
                        OFFSET 0.4919 -1.6479 0.2673
                      }
                    }
                  }
                }
                JOINT RightFinger2
                {
                  OFFSET -0.916 -9.2044 0.2193
                  CHANNELS 3 Zrotation Xrotation Yrotation
                  JOINT RightFinger21
                  {
                    OFFSET -0.0117 -4.1944 -0.0248
                    CHANNELS 3 Zrotation Xrotation Yrotation
                    JOINT RightFinger22
                    {
                      OFFSET -0.0071 -2.3249 -0.0142
                      CHANNELS 3 Zrotation Xrotation Yrotation
                      End Site
                      {
                        OFFSET 0.1475 -2.0882 0.0028
                      }
                    }
                  }
                }
                JOINT RightFinger3
                {
                  OFFSET -0.6113 -8.7231 -2.0637
                  CHANNELS 3 Zrotation Xrotation Yrotation
                  JOINT RightFinger31
                  {
                    OFFSET 0.1927 -3.8059 -0.2383
                    CHANNELS 3 Zrotation Xrotation Yrotation
                    JOINT RightFinger32
                    {
                      OFFSET 0.1091 -2.1688 -0.1362
                      CHANNELS 3 Zrotation Xrotation Yrotation
                      End Site
                      {
                        OFFSET 0.2358 -1.9176 -0.0906
                      }
                    }
                  }
                }
                JOINT RightFinger4
                {
                  OFFSET 0.6151 -8.0947 -3.564
                  CHANNELS 3 Zrotation Xrotation Yrotation
                  JOINT RightFinger41
                  {
                    OFFSET 0.4882 -2.341 -0.6462
                    CHANNELS 3 Zrotation Xrotation Yrotation
                    JOINT RightFinger42
                    {
                      OFFSET 0.3574 -1.7166 -0.4742
                      CHANNELS 3 Zrotation Xrotation Yrotation
                      End Site
                      {
                        OFFSET 0.4187 -1.5237 -0.3496
                      }
                    }
                  }
                }
                JOINT RightFinger0
                {
                  OFFSET 1.4199 -1.8761 1.4221
                  CHANNELS 3 Zrotation Xrotation Yrotation
                  JOINT RightFinger01
                  {
                    OFFSET 1.1472 -3.4929 2.6336
                    CHANNELS 3 Zrotation Xrotation Yrotation
                    JOINT RightFinger02
                    {
                      OFFSET 0.8229 -2.3 1.6571
                      CHANNELS 3 Zrotation Xrotation Yrotation
                      End Site
                      {
                        OFFSET 0.5822 -1.6914 1.1582
                      }
                    }
                  }
                }
              }
            }
          }
        }
      }
    }
  }
  JOINT RightHip
  {
    OFFSET -9.412 3.9771 -0.7758
    CHANNELS 3 Zrotation Xrotation Yrotation
    JOINT RightKnee
    {
      OFFSET -0.7531 -40.938 0
      CHANNELS 3 Zrotation Xrotation Yrotation
      JOINT RightAnkle
      {
        OFFSET 0 -40.1986 0
        CHANNELS 3 Zrotation Xrotation Yrotation
        JOINT RightToe
        {
          OFFSET 0 -4.4182 9.239
          CHANNELS 3 Zrotation Xrotation Yrotation
          End Site
          {
            OFFSET 0 0 6.1981
          }
        }
      }
    }
  }
  JOINT LeftHip
  {
    OFFSET 9.4119 3.9773 -0.7758
    CHANNELS 3 Zrotation Xrotation Yrotation
    JOINT LeftKnee
    {
      OFFSET 0.7532 -40.9383 0
      CHANNELS 3 Zrotation Xrotation Yrotation
      JOINT LeftAnkle
      {
        OFFSET 0 -40.1986 0
        CHANNELS 3 Zrotation Xrotation Yrotation
        JOINT LeftToe
        {
          OFFSET 0 -4.4182 9.239
          CHANNELS 3 Zrotation Xrotation Yrotation
          End Site
          {
            OFFSET 0 0 6.1981
          }
        }
      }
    }
  }
}
MOTION
Frames:	4
Frame Time:	0.0333333
-0.00817732 -79.8361 33.4728 -4.71464e-008 -31.0028 1.43583e-008 -0.331007 17.673 -0.0769205 -0.689036 35.3463 -0.0435743 -0.689031 35.3461 -0.0435761 -13.5126 -14.8042 17.8079 14.8473 -41.6669 19.1127 -6.05473 -10.5891 -21.1879 76.9123 -60.9076 78.5704 -54.7604 -9.59261 -90.6988 -70.3885 -20.1262 9.82284 -2.20695e-032 3.97569e-016 3.18055e-015 -6.36111e-015 7.95139e-015 2.78299e-015 -6.36111e-015 5.96354e-015 4.77083e-015 -2.20695e-032 3.97569e-016 3.18055e-015 -0.0127651 0.00230266 8.97108e-005 9.75493e-006 4.9603e-006 -9.93983e-007 -2.20695e-032 3.97569e-016 3.18055e-015 -0.0160013 0.00297362 0.000858142 -8.31764e-007 -4.3254e-006 1.42141e-006 -2.20695e-032 3.97569e-016 3.18055e-015 -0.0125592 0.00310504 0.0028254 3.18055e-015 1.03368e-014 6.36111e-015 -2.20695e-032 3.97569e-016 3.18055e-015 -6.36111e-015 7.95139e-015 2.78299e-015 -6.36111e-015 5.96354e-015 4.77083e-015 5.14831 -10.5746 16.037 -71.5688 -64.8564 -73.8742 54.5979 -11.4791 91.5028 70.9669 -19.2118 -8.7108 -9.54166e-015 -7.15625e-015 2.38542e-015 -0 -1.74931e-014 -0 3.18055e-015 0 -7.15625e-015 -9.54166e-015 -7.15625e-015 2.38542e-015 0.0130217 0.00232134 -9.64494e-005 -3.18055e-015 -1.07344e-014 -3.18055e-015 -9.54166e-015 -7.15625e-015 2.38542e-015 0.0163607 0.00303996 -0.000882471 -6.36111e-015 2.10712e-014 -1.90833e-014 -9.54166e-015 -7.15625e-015 2.38542e-015 0.0145268 0.00365124 -0.00326007 3.18055e-015 2.78299e-015 7.95139e-016 -9.54166e-015 -7.15625e-015 2.38542e-015 -0 -1.74931e-014 -0 3.18055e-015 0 -7.15625e-015 170.207 -78.8475 170.653 -177.527 22.7479 169.06 13.0438 -22.5219 20.1291 1.1657e-008 1.09341e-007 -8.45601e-007 -159.558 -76.6126 -160.278 177.561 22.609 -168.984 -14.0374 -21.2029 -19.0758 3.71033e-007 -1.74647e-008 -3.37056e-007 
-0.00785775 -79.8362 33.4728 -6.41917e-009 -31.0028 -5.36878e-008 -0.331007 17.673 -0.0769207 -0.689037 35.3463 -0.0435742 -0.689031 35.3461 -0.0435761 -13.5993 -15.0492 18.1354 14.8045 -41.2147 19.1438 -6.18616 -10.5326 -20.9933 76.8306 -61.0789 78.4894 -54.7606 -9.5927 -90.6988 -70.3885 -20.1262 9.82279 1.97606e-006 -5.67107e-007 -4.84846e-007 -6.36111e-015 -5.1684e-015 -4.77083e-015 4.71637e-006 -3.09458e-006 -1.68895e-006 1.97606e-006 -5.67107e-007 -4.84846e-007 -0.0127686 0.00231225 7.93229e-005 -2.74089e-006 2.58371e-006 1.204e-006 1.97606e-006 -5.67107e-007 -4.84846e-007 -0.0160887 0.00300336 0.000853193 3.88747e-006 -4.12956e-007 -2.66044e-007 1.97606e-006 -5.67107e-007 -4.84846e-007 -0.0126417 0.00314238 0.00283172 3.88738e-006 -6.56251e-006 -2.66087e-007 1.97606e-006 -5.67107e-007 -4.84846e-007 -6.36111e-015 -5.1684e-015 -4.77083e-015 4.71637e-006 -3.09458e-006 -1.68895e-006 5.28152 -10.5126 15.8326 -71.4469 -65.0253 -73.7512 54.598 -11.4791 91.5029 70.9669 -19.2118 -8.71076 -4.41391e-031 -7.95139e-015 -3.18055e-015 6.36111e-015 -5.1684e-015 -3.18055e-015 -8.93816e-031 -7.15625e-015 -7.15625e-015 -4.41391e-031 -7.95139e-015 -3.18055e-015 0.0128716 0.00231558 -7.35957e-005 6.36111e-015 5.56597e-015 -0 -4.41391e-031 -7.95139e-015 -3.18055e-015 0.0162991 0.00303605 -0.000867567 -9.54166e-015 -3.57812e-015 4.77083e-015 -4.41391e-031 -7.95139e-015 -3.18055e-015 0.014547 0.00368524 -0.00324185 -1.59028e-014 1.39149e-014 -1.59028e-015 -4.41391e-031 -7.95139e-015 -3.18055e-015 6.36111e-015 -5.1684e-015 -3.18055e-015 -8.93816e-031 -7.15625e-015 -7.15625e-015 170.219 -78.8341 170.666 -177.528 22.7345 169.062 13.0441 -22.5216 20.1296 -8.57259e-016 1.07717e-007 -0 -160.081 -76.6513 -160.775 177.561 22.6114 -168.985 -14.0199 -21.2009 -19.0855 -1.35422e-015 5.39373e-008 -0 
-0.0075698 -79.8363 33.4727 -6.41917e-009 -31.0028 -5.36878e-008 -0.331007 17.673 -0.0769207 -0.689037 35.3463 -0.0435742 -0.689031 35.3461 -0.0435761 -13.6762 -15.2698 18.4296 14.7661 -40.8083 19.1719 -6.30458 -10.4821 -20.818 76.7565 -61.2335 78.4157 -54.7603 -9.59263 -90.6987 -70.3885 -20.1261 9.8228 3.38001e-006 -1.20469e-006 3.50896e-006 -3.18055e-015 1.19271e-015 -1.98785e-015 6.36111e-015 0 5.96354e-015 3.38001e-006 -1.20469e-006 3.50896e-006 -0.0127451 0.00231417 7.84742e-005 1.65415e-006 1.58216e-006 -2.84765e-006 3.38001e-006 -1.20469e-006 3.50896e-006 -0.0160981 0.0030113 0.000857866 2.87536e-006 -1.8347e-006 7.29335e-006 3.38001e-006 -1.20469e-006 3.50896e-006 -0.0126267 0.00312929 0.00283334 -6.76033e-006 1.52074e-005 -7.01814e-006 3.38001e-006 -1.20469e-006 3.50896e-006 -3.18055e-015 1.19271e-015 -1.98785e-015 6.36111e-015 0 5.96354e-015 5.40156 -10.4573 15.6485 -71.3359 -65.1775 -73.6391 54.5979 -11.4791 91.5029 70.9669 -19.2119 -8.71081 -9.25971e-007 1.50298e-006 1.35317e-006 -6.36111e-015 -7.55382e-015 -6.36111e-015 2.06902e-031 -9.93923e-015 1.19271e-015 -9.25971e-007 1.50298e-006 1.35317e-006 0.0129645 0.00233324 -8.29378e-005 3.18055e-015 -1.03368e-014 4.77083e-015 -9.25971e-007 1.50298e-006 1.35317e-006 0.016315 0.00302549 -0.00088027 -3.53222e-007 2.66107e-006 -1.8145e-006 -9.25971e-007 1.50298e-006 1.35317e-006 0.014592 0.00368935 -0.00326119 6.36111e-015 3.18055e-015 -1.98785e-015 -9.25971e-007 1.50298e-006 1.35317e-006 -6.36111e-015 -7.55382e-015 -6.36111e-015 2.06902e-031 -9.93923e-015 1.19271e-015 170.23 -78.8225 170.677 -177.528 22.7232 169.063 13.0444 -22.5212 20.13 -2.56359e-006 3.43519e-008 -2.08021e-006 -160.559 -76.6811 -161.231 177.561 22.6093 -168.987 -14.0024 -21.1993 -19.0953 8.94531e-016 0 -0 
-0.00728265 -79.8364 33.4727 -6.41917e-009 -31.0028 -5.36878e-008 -0.331007 17.673 -0.0769207 -0.689037 35.3463 -0.0435742 -0.689031 35.3461 -0.0435761 -13.752 -15.4911 18.724 14.7277 -40.4016 19.2003 -6.42315 -10.432 -20.6427 76.6811 -61.3875 78.3409 -54.7608 -9.59279 -90.699 -70.3885 -20.1262 9.82287 3.18055e-015 -1.98785e-015 -2.78299e-015 3.18055e-015 7.95139e-016 -4.37326e-015 3.18055e-015 3.18055e-015 -3.18055e-015 3.18055e-015 -1.98785e-015 -2.78299e-015 -0.0127252 0.00229085 8.52983e-005 3.18055e-015 -3.18055e-015 1.19271e-015 3.18055e-015 -1.98785e-015 -2.78299e-015 -0.01608 0.00299216 0.00086696 -1.27222e-014 1.59028e-015 -3.18055e-015 3.18055e-015 -1.98785e-015 -2.78299e-015 -0.0125479 0.00311254 0.00282094 -3.18055e-015 5.96354e-015 2.38542e-015 3.18055e-015 -1.98785e-015 -2.78299e-015 3.18055e-015 7.95139e-016 -4.37326e-015 3.18055e-015 3.18055e-015 -3.18055e-015 5.52177 -10.4023 15.4644 -71.2232 -65.3291 -73.5253 54.5982 -11.4792 91.503 70.9669 -19.2119 -8.71078 -6.36111e-015 -3.97569e-016 1.59028e-015 -4.13804e-032 -1.98785e-015 -1.19271e-015 -4.41391e-032 -3.18055e-015 -7.95139e-016 -6.36111e-015 -3.97569e-016 1.59028e-015 0.0129326 0.00231656 -8.22975e-005 6.36111e-015 -1.98785e-015 1.19271e-015 -6.36111e-015 -3.97569e-016 1.59028e-015 0.0162622 0.00301799 -0.000879631 -3.18055e-015 -1.39149e-014 3.57812e-015 -6.36111e-015 -3.97569e-016 1.59028e-015 0.0146575 0.00369063 -0.00328588 1.76005e-030 -1.15295e-014 8.74653e-015 -6.36111e-015 -3.97569e-016 1.59028e-015 -4.13804e-032 -1.98785e-015 -1.19271e-015 -4.41391e-032 -3.18055e-015 -7.95139e-016 170.24 -78.811 170.689 -177.529 22.7119 169.064 13.0446 -22.5207 20.1304 -2.56359e-006 3.43464e-008 -2.08021e-006 -161.029 -76.7194 -161.677 177.56 22.6168 -168.988 -13.9849 -21.1977 -19.105 4.1727e-007 -4.6452e-008 8.44687e-007 
